<svg xmlns="http://www.w3.org/2000/svg" xmlns:xlink="http://www.w3.org/1999/xlink" width="54" height="54" viewBox="0 0 54 54">
    <defs>
        <path id="a" d="M0 0h53.438V53.49H0z"/>
    </defs>
    <g fill="none" fill-rule="evenodd">
        <mask id="b" fill="#fff">
            <use xlink:href="#a"/>
        </mask>
        <path fill="#787886" d="M4.316 9.079l5.34.216-.236 4.976c-.03.63.457 1.163 1.086 1.194h.055A1.14 1.14 0 0 0 11.7 14.38l.29-6.124a1.142 1.142 0 0 0-1.094-1.193L4.408 6.8a1.138 1.138 0 0 0-1.186 1.093A1.14 1.14 0 0 0 4.316 9.08m33.963 38.71c-3.681 2.028-7.875 3.043-12.09 2.958-13.22-.293-23.737-11.285-23.445-24.504A23.907 23.907 0 0 1 6.69 13.577a1.37 1.37 0 0 0-2.284-1.509 26.639 26.639 0 0 0-4.4 14.114C-.318 40.91 11.4 53.159 26.13 53.485a26.715 26.715 0 0 0 13.471-3.3 1.368 1.368 0 1 0-1.322-2.396m13.41-7.289l-4.904.873-.9-5.269a1.142 1.142 0 0 0-2.249.385l1.094 6.4c.051.3.22.566.468.742a1.148 1.148 0 0 0 .856.189l6.035-1.074a1.14 1.14 0 1 0-.4-2.246m-3.22-3.666a1.37 1.37 0 0 0 2.48 1.157 26.457 26.457 0 0 0 2.482-11.876C53.098 11.385 40.86-.333 26.114.007c-2.771.063-5.494.548-8.092 1.44a1.37 1.37 0 0 0 .89 2.59 23.962 23.962 0 0 1 7.263-1.293c13.244-.298 24.219 10.213 24.519 23.432a23.75 23.75 0 0 1-2.226 10.658m-24.11-15.216a2.753 2.753 0 0 0-2.75-2.75 2.753 2.753 0 0 0-2.75 2.75 2.754 2.754 0 0 0 2.75 2.75 2.754 2.754 0 0 0 2.75-2.75m2.737 0a5.494 5.494 0 0 1-5.488 5.488 5.494 5.494 0 0 1-5.488-5.488 5.494 5.494 0 0 1 5.488-5.488 5.494 5.494 0 0 1 5.488 5.488m-9.243 18.748h7.51a3.944 3.944 0 0 0 3.94-3.94v-2.785c0-2.013-.87-3.823-2.517-5.236a1.37 1.37 0 0 0-1.783 2.078c1.036.889 1.561 1.951 1.561 3.158v2.786c0 .662-.539 1.201-1.201 1.201h-7.51c-.662 0-1.201-.539-1.201-1.201V33.64c0-1.184.507-2.23 1.506-3.11a1.37 1.37 0 0 0-1.809-2.056c-1.593 1.403-2.435 3.19-2.435 5.166v2.786a3.944 3.944 0 0 0 3.94 3.939m16.843-7.487h-1.28a1.37 1.37 0 0 0 0 2.738h1.28a3.944 3.944 0 0 0 3.94-3.94v-2.784c0-1.846-.741-3.538-2.141-4.895a1.37 1.37 0 0 0-1.906 1.967c.868.841 1.309 1.826 1.309 2.928v2.785c0 .662-.54 1.201-1.202 1.201m1.733-15.702a5.494 5.494 0 0 1-5.488 5.488 1.368 1.368 0 0 1 0-2.738 2.753 2.753 0 0 0 2.75-2.75 2.754 2.754 0 0 0-2.75-2.75c-.72 0-1.4.276-1.917.778a1.368 1.368 0 1 1-1.908-1.963 5.46 5.46 0 0 1 3.825-1.553 5.494 5.494 0 0 1 5.488 5.488" mask="url(#b)"/>
    </g>
</svg>
