<svg width="848" height="55" viewBox="0 0 848 55" fill="none" xmlns="http://www.w3.org/2000/svg">
<path d="M0.954344 22.048C0.954344 19.032 1.43768 16.2673 2.40434 13.754C3.37101 11.202 4.70501 9.01733 6.40634 7.2C8.14634 5.38267 10.1957 3.97133 12.5543 2.966C14.9517 1.922 17.581 1.4 20.4423 1.4C23.3037 1.4 25.9137 1.922 28.2723 2.966C30.6697 3.97133 32.719 5.38267 34.4203 7.2C36.1603 9.01733 37.5137 11.202 38.4803 13.754C39.447 16.2673 39.9303 19.032 39.9303 22.048C39.9303 25.76 39.2343 29.066 37.8423 31.966C36.4503 34.866 34.517 37.2247 32.0423 39.042L40.1043 47.916H31.4043L26.0103 41.826C25.121 42.0967 24.2123 42.3093 23.2843 42.464C22.395 42.6187 21.4477 42.696 20.4423 42.696C17.581 42.696 14.9517 42.1933 12.5543 41.188C10.1957 40.144 8.14634 38.7133 6.40634 36.896C4.70501 35.0787 3.37101 32.9133 2.40434 30.4C1.43768 27.848 0.954344 25.064 0.954344 22.048ZM8.78434 22.048C8.78434 24.136 9.05501 26.05 9.59634 27.79C10.1763 29.53 10.969 31.038 11.9743 32.314C13.0183 33.59 14.2557 34.576 15.6863 35.272C17.117 35.968 18.7023 36.316 20.4423 36.316C22.1823 36.316 23.7677 35.968 25.1983 35.272C26.629 34.576 27.847 33.59 28.8523 32.314C29.8963 31.038 30.689 29.53 31.2303 27.79C31.8103 26.05 32.1003 24.136 32.1003 22.048C32.1003 19.96 31.8103 18.046 31.2303 16.306C30.689 14.566 29.8963 13.058 28.8523 11.782C27.847 10.506 26.629 9.52 25.1983 8.824C23.7677 8.128 22.1823 7.78 20.4423 7.78C18.7023 7.78 17.117 8.128 15.6863 8.824C14.2557 9.52 13.0183 10.506 11.9743 11.782C10.969 13.058 10.1763 14.566 9.59634 16.306C9.05501 18.046 8.78434 19.96 8.78434 22.048ZM72.4561 42H64.9741V39.448C62.3448 41.6133 59.5414 42.696 56.5641 42.696C55.0561 42.696 53.6641 42.4447 52.3881 41.942C51.1121 41.4007 50.0101 40.666 49.0821 39.738C48.1928 38.81 47.4968 37.708 46.9941 36.432C46.4914 35.156 46.2401 33.764 46.2401 32.256V13H53.6641V30.922C53.6641 32.43 54.1281 33.6867 55.0561 34.692C56.0228 35.6973 57.2601 36.2 58.7681 36.2C60.9334 36.2 63.0021 35.1753 64.9741 33.126V13H72.4561V42ZM96.1151 39.68C93.5245 41.6907 90.7405 42.696 87.7631 42.696C86.4098 42.696 85.1725 42.4833 84.0511 42.058C82.9298 41.6327 81.9631 41.0527 81.1511 40.318C80.3391 39.5447 79.7011 38.636 79.2371 37.592C78.7731 36.5093 78.5411 35.33 78.5411 34.054C78.5411 32.546 78.8698 31.1733 79.5271 29.936C80.2231 28.66 81.1898 27.5773 82.4271 26.688C83.6645 25.7987 85.1338 25.1027 86.8351 24.6C88.5365 24.0973 90.4311 23.846 92.5191 23.846C93.0991 23.846 93.6791 23.8653 94.2591 23.904C94.8391 23.904 95.4578 23.9233 96.1151 23.962V22.628C96.1151 21.2747 95.6125 20.1727 94.6071 19.322C93.6018 18.4713 92.2871 18.046 90.6631 18.046C89.1551 18.046 87.5891 18.278 85.9651 18.742C84.3411 19.206 82.6978 19.902 81.0351 20.83V14.682C82.8138 13.87 84.5731 13.2707 86.3131 12.884C88.0531 12.4973 89.7931 12.304 91.5331 12.304C93.3118 12.304 94.9165 12.5747 96.3471 13.116C97.7778 13.6187 98.9958 14.3533 100.001 15.32C101.006 16.248 101.78 17.3693 102.321 18.684C102.901 19.9987 103.191 21.4293 103.191 22.976V42H96.1151V39.68ZM85.8491 33.01C85.8491 34.17 86.2551 35.1173 87.0671 35.852C87.8791 36.5867 88.9231 36.954 90.1991 36.954C91.2045 36.954 92.2098 36.7027 93.2151 36.2C94.2591 35.6973 95.2258 35.0013 96.1151 34.112V28.428C95.0711 28.312 93.9885 28.254 92.8671 28.254C90.7791 28.254 89.0778 28.6987 87.7631 29.588C86.4871 30.4773 85.8491 31.618 85.8491 33.01ZM111.099 0.297998H118.523V42H111.099V0.297998ZM126.619 13H134.043V42H126.619V13ZM126.097 4.996C126.097 3.75867 126.483 2.75333 127.257 1.98C128.069 1.168 129.093 0.761999 130.331 0.761999C131.568 0.761999 132.573 1.168 133.347 1.98C134.159 2.75333 134.565 3.75867 134.565 4.996C134.565 6.23333 134.159 7.23867 133.347 8.012C132.573 8.78533 131.568 9.172 130.331 9.172C129.093 9.172 128.069 8.78533 127.257 8.012C126.483 7.23867 126.097 6.23333 126.097 4.996ZM151.534 13H159.886V18.974H151.534V32.372C151.534 33.5707 151.921 34.5567 152.694 35.33C153.467 36.1033 154.492 36.49 155.768 36.49C156.967 36.49 158.339 36.1033 159.886 35.33V41.478C157.798 42.29 155.768 42.696 153.796 42.696C152.365 42.696 151.051 42.464 149.852 42C148.692 41.536 147.687 40.898 146.836 40.086C145.985 39.2353 145.309 38.2493 144.806 37.128C144.342 35.968 144.11 34.7113 144.11 33.358V18.974H139.122V13H144.11V4.822H151.534V13ZM175.258 54.702H168.066L173.634 40.956L162.556 13H170.154L177.114 32.024L184.132 13H191.73L175.258 54.702ZM210.927 2.096H218.467V18.626H236.969V2.096H244.567V42H236.969V24.774H218.467V42H210.927V2.096ZM251.805 27.268C251.805 25.064 252.153 23.0533 252.849 21.236C253.583 19.4187 254.589 17.8527 255.865 16.538C257.141 15.1847 258.649 14.1407 260.389 13.406C262.129 12.6713 264.043 12.304 266.131 12.304C268.025 12.304 269.746 12.6713 271.293 13.406C272.878 14.102 274.231 15.088 275.353 16.364C276.474 17.64 277.344 19.1673 277.963 20.946C278.581 22.7247 278.891 24.6773 278.891 26.804C278.891 27.2293 278.891 27.674 278.891 28.138C278.891 28.5633 278.852 29.0273 278.775 29.53H259.113C259.345 31.734 260.253 33.532 261.839 34.924C263.463 36.2773 265.493 36.954 267.929 36.954C269.282 36.954 270.674 36.722 272.105 36.258C273.574 35.794 275.063 35.1173 276.571 34.228V40.434C273.245 41.942 269.959 42.696 266.711 42.696C264.507 42.696 262.496 42.3287 260.679 41.594C258.861 40.8207 257.295 39.7573 255.981 38.404C254.666 37.012 253.641 35.388 252.907 33.532C252.172 31.6373 251.805 29.5493 251.805 27.268ZM271.757 24.716C271.641 22.744 271.041 21.1393 269.959 19.902C268.876 18.6647 267.503 18.046 265.841 18.046C264.023 18.046 262.496 18.6647 261.259 19.902C260.021 21.1007 259.306 22.7053 259.113 24.716H271.757ZM300.418 39.68C297.827 41.6907 295.043 42.696 292.066 42.696C290.713 42.696 289.475 42.4833 288.354 42.058C287.233 41.6327 286.266 41.0527 285.454 40.318C284.642 39.5447 284.004 38.636 283.54 37.592C283.076 36.5093 282.844 35.33 282.844 34.054C282.844 32.546 283.173 31.1733 283.83 29.936C284.526 28.66 285.493 27.5773 286.73 26.688C287.967 25.7987 289.437 25.1027 291.138 24.6C292.839 24.0973 294.734 23.846 296.822 23.846C297.402 23.846 297.982 23.8653 298.562 23.904C299.142 23.904 299.761 23.9233 300.418 23.962V22.628C300.418 21.2747 299.915 20.1727 298.91 19.322C297.905 18.4713 296.59 18.046 294.966 18.046C293.458 18.046 291.892 18.278 290.268 18.742C288.644 19.206 287.001 19.902 285.338 20.83V14.682C287.117 13.87 288.876 13.2707 290.616 12.884C292.356 12.4973 294.096 12.304 295.836 12.304C297.615 12.304 299.219 12.5747 300.65 13.116C302.081 13.6187 303.299 14.3533 304.304 15.32C305.309 16.248 306.083 17.3693 306.624 18.684C307.204 19.9987 307.494 21.4293 307.494 22.976V42H300.418V39.68ZM290.152 33.01C290.152 34.17 290.558 35.1173 291.37 35.852C292.182 36.5867 293.226 36.954 294.502 36.954C295.507 36.954 296.513 36.7027 297.518 36.2C298.562 35.6973 299.529 35.0013 300.418 34.112V28.428C299.374 28.312 298.291 28.254 297.17 28.254C295.082 28.254 293.381 28.6987 292.066 29.588C290.79 30.4773 290.152 31.618 290.152 33.01ZM315.402 0.297998H322.826V42H315.402V0.297998ZM340.317 13H348.669V18.974H340.317V32.372C340.317 33.5707 340.704 34.5567 341.477 35.33C342.251 36.1033 343.275 36.49 344.551 36.49C345.75 36.49 347.123 36.1033 348.669 35.33V41.478C346.581 42.29 344.551 42.696 342.579 42.696C341.149 42.696 339.834 42.464 338.635 42C337.475 41.536 336.47 40.898 335.619 40.086C334.769 39.2353 334.092 38.2493 333.589 37.128C333.125 35.968 332.893 34.7113 332.893 33.358V18.974H327.905V13H332.893V4.822H340.317V13ZM354.994 0.297998H362.418V15.494C365.086 13.3673 367.908 12.304 370.886 12.304C372.394 12.304 373.766 12.5553 375.004 13.058C376.28 13.5607 377.382 14.276 378.31 15.204C379.238 16.132 379.953 17.234 380.456 18.51C380.958 19.786 381.21 21.1973 381.21 22.744V42H373.728V24.078C373.728 22.5313 373.244 21.2747 372.278 20.308C371.35 19.3027 370.132 18.8 368.624 18.8C366.42 18.8 364.351 19.8247 362.418 21.874V42H354.994V0.297998ZM387.063 27.5C387.063 25.2573 387.43 23.208 388.165 21.352C388.899 19.496 389.924 17.9107 391.239 16.596C392.553 15.2427 394.119 14.1987 395.937 13.464C397.754 12.6907 399.765 12.304 401.969 12.304C404.869 12.304 407.788 12.9807 410.727 14.334V21.004C408.175 19.3413 405.7 18.51 403.303 18.51C402.027 18.51 400.867 18.742 399.823 19.206C398.779 19.6313 397.87 20.2307 397.097 21.004C396.323 21.7773 395.724 22.7247 395.299 23.846C394.873 24.9673 394.661 26.1853 394.661 27.5C394.661 28.8147 394.873 30.0327 395.299 31.154C395.724 32.2367 396.323 33.184 397.097 33.996C397.87 34.7693 398.779 35.388 399.823 35.852C400.867 36.2773 402.027 36.49 403.303 36.49C405.7 36.49 408.175 35.6587 410.727 33.996V40.666C407.788 42.0193 404.869 42.696 401.969 42.696C399.765 42.696 397.754 42.3287 395.937 41.594C394.119 40.8207 392.553 39.7767 391.239 38.462C389.924 37.1087 388.899 35.504 388.165 33.648C387.43 31.7533 387.063 29.704 387.063 27.5ZM432.787 39.68C430.196 41.6907 427.412 42.696 424.435 42.696C423.082 42.696 421.844 42.4833 420.723 42.058C419.602 41.6327 418.635 41.0527 417.823 40.318C417.011 39.5447 416.373 38.636 415.909 37.592C415.445 36.5093 415.213 35.33 415.213 34.054C415.213 32.546 415.542 31.1733 416.199 29.936C416.895 28.66 417.862 27.5773 419.099 26.688C420.336 25.7987 421.806 25.1027 423.507 24.6C425.208 24.0973 427.103 23.846 429.191 23.846C429.771 23.846 430.351 23.8653 430.931 23.904C431.511 23.904 432.13 23.9233 432.787 23.962V22.628C432.787 21.2747 432.284 20.1727 431.279 19.322C430.274 18.4713 428.959 18.046 427.335 18.046C425.827 18.046 424.261 18.278 422.637 18.742C421.013 19.206 419.37 19.902 417.707 20.83V14.682C419.486 13.87 421.245 13.2707 422.985 12.884C424.725 12.4973 426.465 12.304 428.205 12.304C429.984 12.304 431.588 12.5747 433.019 13.116C434.45 13.6187 435.668 14.3533 436.673 15.32C437.678 16.248 438.452 17.3693 438.993 18.684C439.573 19.9987 439.863 21.4293 439.863 22.976V42H432.787V39.68ZM422.521 33.01C422.521 34.17 422.927 35.1173 423.739 35.852C424.551 36.5867 425.595 36.954 426.871 36.954C427.876 36.954 428.882 36.7027 429.887 36.2C430.931 35.6973 431.898 35.0013 432.787 34.112V28.428C431.743 28.312 430.66 28.254 429.539 28.254C427.451 28.254 425.75 28.6987 424.435 29.588C423.159 30.4773 422.521 31.618 422.521 33.01ZM447.771 13H455.195V15.9C457.36 13.5027 459.738 12.304 462.329 12.304C462.754 12.304 463.16 12.3233 463.547 12.362C463.934 12.4007 464.34 12.478 464.765 12.594V19.206C463.953 18.974 463.083 18.858 462.155 18.858C460.918 18.858 459.68 19.1867 458.443 19.844C457.244 20.4627 456.162 21.3907 455.195 22.628V42H447.771V13ZM467.436 27.268C467.436 25.064 467.784 23.0533 468.48 21.236C469.214 19.4187 470.22 17.8527 471.496 16.538C472.772 15.1847 474.28 14.1407 476.02 13.406C477.76 12.6713 479.674 12.304 481.762 12.304C483.656 12.304 485.377 12.6713 486.924 13.406C488.509 14.102 489.862 15.088 490.984 16.364C492.105 17.64 492.975 19.1673 493.594 20.946C494.212 22.7247 494.522 24.6773 494.522 26.804C494.522 27.2293 494.522 27.674 494.522 28.138C494.522 28.5633 494.483 29.0273 494.406 29.53H474.744C474.976 31.734 475.884 33.532 477.47 34.924C479.094 36.2773 481.124 36.954 483.56 36.954C484.913 36.954 486.305 36.722 487.736 36.258C489.205 35.794 490.694 35.1173 492.202 34.228V40.434C488.876 41.942 485.59 42.696 482.342 42.696C480.138 42.696 478.127 42.3287 476.31 41.594C474.492 40.8207 472.926 39.7573 471.612 38.404C470.297 37.012 469.272 35.388 468.538 33.532C467.803 31.6373 467.436 29.5493 467.436 27.268ZM487.388 24.716C487.272 22.744 486.672 21.1393 485.59 19.902C484.507 18.6647 483.134 18.046 481.472 18.046C479.654 18.046 478.127 18.6647 476.89 19.902C475.652 21.1007 474.937 22.7053 474.744 24.716H487.388ZM516.107 2.096H522.661L535.479 19.902L548.239 2.096H554.909V42H547.775V14.218L537.741 28.196H533.159L523.241 14.218V42H516.107V2.096ZM579.713 39.68C577.122 41.6907 574.338 42.696 571.361 42.696C570.007 42.696 568.77 42.4833 567.649 42.058C566.527 41.6327 565.561 41.0527 564.749 40.318C563.937 39.5447 563.299 38.636 562.835 37.592C562.371 36.5093 562.139 35.33 562.139 34.054C562.139 32.546 562.467 31.1733 563.125 29.936C563.821 28.66 564.787 27.5773 566.025 26.688C567.262 25.7987 568.731 25.1027 570.433 24.6C572.134 24.0973 574.029 23.846 576.117 23.846C576.697 23.846 577.277 23.8653 577.857 23.904C578.437 23.904 579.055 23.9233 579.713 23.962V22.628C579.713 21.2747 579.21 20.1727 578.205 19.322C577.199 18.4713 575.885 18.046 574.261 18.046C572.753 18.046 571.187 18.278 569.563 18.742C567.939 19.206 566.295 19.902 564.633 20.83V14.682C566.411 13.87 568.171 13.2707 569.911 12.884C571.651 12.4973 573.391 12.304 575.131 12.304C576.909 12.304 578.514 12.5747 579.945 13.116C581.375 13.6187 582.593 14.3533 583.599 15.32C584.604 16.248 585.377 17.3693 585.919 18.684C586.499 19.9987 586.789 21.4293 586.789 22.976V42H579.713V39.68ZM569.447 33.01C569.447 34.17 569.853 35.1173 570.665 35.852C571.477 36.5867 572.521 36.954 573.797 36.954C574.802 36.954 575.807 36.7027 576.813 36.2C577.857 35.6973 578.823 35.0013 579.713 34.112V28.428C578.669 28.312 577.586 28.254 576.465 28.254C574.377 28.254 572.675 28.6987 571.361 29.588C570.085 30.4773 569.447 31.618 569.447 33.01ZM600.323 27.5C600.323 30.1293 600.98 32.256 602.295 33.88C603.609 35.504 605.33 36.316 607.457 36.316C609.583 36.316 611.497 35.446 613.199 33.706V21.294C611.497 19.554 609.583 18.684 607.457 18.684C605.33 18.684 603.609 19.496 602.295 21.12C600.98 22.744 600.323 24.8707 600.323 27.5ZM620.681 42H613.199V39.97C610.917 41.7873 608.462 42.696 605.833 42.696C603.899 42.696 602.121 42.3287 600.497 41.594C598.911 40.8207 597.539 39.7767 596.379 38.462C595.219 37.1087 594.31 35.504 593.653 33.648C593.034 31.792 592.725 29.7427 592.725 27.5C592.725 25.2573 593.034 23.208 593.653 21.352C594.31 19.496 595.219 17.9107 596.379 16.596C597.539 15.2427 598.911 14.1987 600.497 13.464C602.121 12.6907 603.899 12.304 605.833 12.304C608.423 12.304 610.879 13.1933 613.199 14.972V0.297998H620.681V42ZM626.766 27.268C626.766 25.064 627.114 23.0533 627.81 21.236C628.544 19.4187 629.55 17.8527 630.826 16.538C632.102 15.1847 633.61 14.1407 635.35 13.406C637.09 12.6713 639.004 12.304 641.092 12.304C642.986 12.304 644.707 12.6713 646.254 13.406C647.839 14.102 649.192 15.088 650.314 16.364C651.435 17.64 652.305 19.1673 652.924 20.946C653.542 22.7247 653.852 24.6773 653.852 26.804C653.852 27.2293 653.852 27.674 653.852 28.138C653.852 28.5633 653.813 29.0273 653.736 29.53H634.074C634.306 31.734 635.214 33.532 636.8 34.924C638.424 36.2773 640.454 36.954 642.89 36.954C644.243 36.954 645.635 36.722 647.066 36.258C648.535 35.794 650.024 35.1173 651.532 34.228V40.434C648.206 41.942 644.92 42.696 641.672 42.696C639.468 42.696 637.457 42.3287 635.64 41.594C633.822 40.8207 632.256 39.7573 630.942 38.404C629.627 37.012 628.602 35.388 627.868 33.532C627.133 31.6373 626.766 29.5493 626.766 27.268ZM646.718 24.716C646.602 22.744 646.002 21.1393 644.92 19.902C643.837 18.6647 642.464 18.046 640.802 18.046C638.984 18.046 637.457 18.6647 636.22 19.902C634.982 21.1007 634.267 22.7053 634.074 24.716H646.718ZM673.813 33.01C677.563 35.4073 681.275 36.606 684.949 36.606C687.153 36.606 688.931 36.084 690.285 35.04C691.677 33.996 692.373 32.6233 692.373 30.922C692.373 29.5687 691.889 28.5053 690.923 27.732C689.995 26.92 688.796 26.2433 687.327 25.702C685.896 25.122 684.349 24.5807 682.687 24.078C681.024 23.5367 679.458 22.8213 677.989 21.932C676.558 21.0427 675.359 19.902 674.393 18.51C673.465 17.118 673.001 15.262 673.001 12.942C673.001 11.2407 673.349 9.694 674.045 8.302C674.741 6.87133 675.707 5.65333 676.945 4.648C678.221 3.604 679.729 2.81133 681.469 2.27C683.247 1.69 685.181 1.4 687.269 1.4C690.826 1.4 694.403 2.13466 697.999 3.604V10.506C696.297 9.50067 694.577 8.74667 692.837 8.244C691.135 7.74133 689.453 7.49 687.791 7.49C685.664 7.49 683.924 7.97333 682.571 8.94C681.256 9.90667 680.599 11.202 680.599 12.826C680.599 14.1407 681.063 15.1847 681.991 15.958C682.957 16.6927 684.156 17.35 685.587 17.93C687.056 18.4713 688.622 19.0127 690.285 19.554C691.947 20.0567 693.494 20.772 694.925 21.7C696.394 22.5893 697.593 23.7493 698.521 25.18C699.487 26.6107 699.971 28.486 699.971 30.806C699.971 32.546 699.603 34.1507 698.869 35.62C698.173 37.0893 697.187 38.346 695.911 39.39C694.635 40.434 693.107 41.246 691.329 41.826C689.55 42.406 687.597 42.696 685.471 42.696C683.537 42.696 681.585 42.464 679.613 42C677.679 41.5747 675.746 40.9173 673.813 40.028V33.01ZM706.562 13H713.986V42H706.562V13ZM706.04 4.996C706.04 3.75867 706.427 2.75333 707.2 1.98C708.012 1.168 709.037 0.761999 710.274 0.761999C711.511 0.761999 712.517 1.168 713.29 1.98C714.102 2.75333 714.508 3.75867 714.508 4.996C714.508 6.23333 714.102 7.23867 713.29 8.012C712.517 8.78533 711.511 9.172 710.274 9.172C709.037 9.172 708.012 8.78533 707.2 8.012C706.427 7.23867 706.04 6.23333 706.04 4.996ZM722.081 13H729.505V15.32C730.781 14.276 732.096 13.522 733.449 13.058C734.841 12.5553 736.272 12.304 737.741 12.304C739.481 12.304 741.047 12.6713 742.439 13.406C743.87 14.1407 745.03 15.2233 745.919 16.654C748.819 13.754 752.029 12.304 755.547 12.304C756.978 12.304 758.273 12.5553 759.433 13.058C760.632 13.5607 761.657 14.2567 762.507 15.146C763.358 16.0353 764.015 17.0987 764.479 18.336C764.943 19.5733 765.175 20.946 765.175 22.454V42H757.751V23.614C757.751 22.222 757.326 21.0813 756.475 20.192C755.663 19.264 754.581 18.8 753.227 18.8C752.261 18.8 751.275 19.0513 750.269 19.554C749.264 20.018 748.297 20.7527 747.369 21.758V42H739.945V23.614C739.945 22.222 739.52 21.0813 738.669 20.192C737.819 19.264 736.717 18.8 735.363 18.8C734.397 18.8 733.411 19.0513 732.405 19.554C731.4 20.018 730.433 20.7527 729.505 21.758V42H722.081V13ZM793.358 27.5C793.358 26.1853 793.184 24.9867 792.836 23.904C792.488 22.8213 792.005 21.8933 791.386 21.12C790.767 20.3467 790.013 19.7473 789.124 19.322C788.273 18.8967 787.326 18.684 786.282 18.684C784.155 18.684 782.222 19.554 780.482 21.294V33.706C782.222 35.446 784.155 36.316 786.282 36.316C787.326 36.316 788.273 36.1033 789.124 35.678C790.013 35.2527 790.767 34.6533 791.386 33.88C792.005 33.1067 792.488 32.1787 792.836 31.096C793.184 30.0133 793.358 28.8147 793.358 27.5ZM773.058 13H780.482V14.972C782.841 13.1933 785.296 12.304 787.848 12.304C789.781 12.304 791.541 12.6907 793.126 13.464C794.75 14.1987 796.142 15.2427 797.302 16.596C798.462 17.9107 799.351 19.496 799.97 21.352C800.627 23.208 800.956 25.2573 800.956 27.5C800.956 29.7427 800.627 31.792 799.97 33.648C799.351 35.504 798.462 37.1087 797.302 38.462C796.142 39.7767 794.75 40.8207 793.126 41.594C791.541 42.3287 789.781 42.696 787.848 42.696C785.296 42.696 782.841 41.7873 780.482 39.97V54.702H773.058V13ZM807.099 0.297998H814.523V42H807.099V0.297998ZM820.647 27.268C820.647 25.064 820.995 23.0533 821.691 21.236C822.425 19.4187 823.431 17.8527 824.707 16.538C825.983 15.1847 827.491 14.1407 829.231 13.406C830.971 12.6713 832.885 12.304 834.973 12.304C836.867 12.304 838.588 12.6713 840.135 13.406C841.72 14.102 843.073 15.088 844.195 16.364C845.316 17.64 846.186 19.1673 846.805 20.946C847.423 22.7247 847.733 24.6773 847.733 26.804C847.733 27.2293 847.733 27.674 847.733 28.138C847.733 28.5633 847.694 29.0273 847.617 29.53H827.955C828.187 31.734 829.095 33.532 830.681 34.924C832.305 36.2773 834.335 36.954 836.771 36.954C838.124 36.954 839.516 36.722 840.947 36.258C842.416 35.794 843.905 35.1173 845.413 34.228V40.434C842.087 41.942 838.801 42.696 835.553 42.696C833.349 42.696 831.338 42.3287 829.521 41.594C827.703 40.8207 826.137 39.7573 824.823 38.404C823.508 37.012 822.483 35.388 821.749 33.532C821.014 31.6373 820.647 29.5493 820.647 27.268ZM840.599 24.716C840.483 22.744 839.883 21.1393 838.801 19.902C837.718 18.6647 836.345 18.046 834.683 18.046C832.865 18.046 831.338 18.6647 830.101 19.902C828.863 21.1007 828.148 22.7053 827.955 24.716H840.599Z" fill="url(#paint0_linear)"/>
<defs>
<linearGradient id="paint0_linear" x1="687.5" y1="-101" x2="289" y2="95.5" gradientUnits="userSpaceOnUse">
<stop stop-color="#5C99D5"/>
<stop offset="1" stop-color="#070189"/>
</linearGradient>
</defs>
</svg>
