<svg xmlns="http://www.w3.org/2000/svg" width="66" height="55" viewBox="0 0 66 55">
    <path fill="#787886" fill-rule="evenodd" d="M34.428 8.899V1.425C34.428.637 33.788 0 33 0c-.788 0-1.428.637-1.428 1.425v7.474a1.427 1.427 0 0 0 2.856 0m27.688 11.378l3.535-4.072a1.428 1.428 0 0 0-2.157-1.867l-3.536 4.072a1.424 1.424 0 0 0 1.078 2.358c.4 0 .797-.166 1.08-.491m-56.218.144c.596-.517.66-1.416.144-2.01l-3.536-4.074A1.428 1.428 0 0 0 .35 16.205l3.535 4.072c.283.325.68.491 1.08.491.331 0 .664-.114.934-.347m27.089.266c-7.676 0-13.898 6.212-13.898 13.876s6.222 13.876 13.898 13.876c7.674 0 13.896-6.212 13.896-13.876s-6.222-13.876-13.896-13.876m0 2.85c6.087 0 11.041 4.946 11.041 11.026 0 6.079-4.954 11.025-11.041 11.025-6.09 0-11.043-4.946-11.043-11.025 0-6.08 4.954-11.026 11.043-11.026m6.564 11.026a1.427 1.427 0 0 0-2.855 0 3.711 3.711 0 0 1-3.71 3.704 3.712 3.712 0 0 1-3.71-3.704 3.712 3.712 0 0 1 3.71-3.705 1.425 1.425 0 1 0 0-2.85c-3.62 0-6.565 2.94-6.565 6.555 0 3.615 2.945 6.555 6.566 6.555 3.62 0 6.564-2.94 6.564-6.555m-6.462-20.661c-12.85 0-23.66 9.65-28.959 15.4-2.749 2.984-2.749 7.315 0 10.298C9.43 45.35 20.237 55 33.09 55c12.85 0 23.659-9.649 28.958-15.4 2.748-2.983 2.748-7.314 0-10.297-5.3-5.752-16.108-15.401-28.958-15.401m0 2.851c11.897 0 22.155 9.377 26.857 14.48 1.733 1.881 1.733 4.555 0 6.437-4.702 5.102-14.96 14.48-26.857 14.48-11.898 0-22.156-9.378-26.858-14.48-1.733-1.882-1.733-4.556 0-6.437 4.702-5.103 14.96-14.48 26.858-14.48"/>
</svg>
