<svg xmlns="http://www.w3.org/2000/svg" xmlns:xlink="http://www.w3.org/1999/xlink" width="98" height="49" viewBox="0 0 98 49">
    <defs>
        <path id="a" d="M0 0h98v49H0z"/>
    </defs>
    <g fill="none" fill-rule="evenodd">
        <mask id="b" fill="#fff">
            <use xlink:href="#a"/>
        </mask>
        <path fill="#787886" d="M83.964 29.456c-.005.019-.547 1.881-2.446 2.88-1.746.918-4.114.862-7.033-.157l-2.118-1.63c-8.825-6.8-17.56-13.506-18.967-14.309-3.874-2.208-8.31-.76-11.872.401-.825.27-1.605.525-2.286.7-4.814 1.24-6.239.956-6.586.5-.199-.26-.207-1.283 1.02-3.464 5.203-9.246 17.75-11.55 24.1-9.08 6.264 2.44 18.748 6.184 21.841 7.103.647 3.746 1.632 8.36 3.08 12.845.462 1.432.912 2.766 1.347 4-.032.067-.06.137-.08.211m-10.194 8.36c-1.25 1.12-4.167.671-5.311.379L51.645 27.577a1.272 1.272 0 0 0-1.759.403 1.283 1.283 0 0 0 .4 1.764L66.46 39.957c-.375 1.076-.958 1.817-1.767 2.254-1.716.924-3.998.234-4.493.066L46.588 33.58a1.273 1.273 0 0 0-1.76.392 1.283 1.283 0 0 0 .39 1.768l12.604 8.053c-1.975 2.26-4.49 1.494-4.917 1.343l-13.6-6.474a1.273 1.273 0 0 0-1.698.608 1.282 1.282 0 0 0 .605 1.705l10.581 5.036c-3.89.819-8.147.611-14.55-1.638-5.625-1.977-17.33-12.01-20.162-14.483 2.96-5.508 6.725-12.763 9.124-18.313.139-.32.253-.651.351-.985 1.605-.241 5.58-.702 9.714-.165a20.193 20.193 0 0 0-1.815 2.69c-.589 1.048-2.383 4.237-.824 6.282 1.787 2.341 6.455 1.14 9.244.422.76-.195 1.577-.461 2.442-.744 3.247-1.06 6.926-2.264 9.824-.61 1.372.782 13.057 9.786 18.674 14.113l3.601 2.774c.113 1.15-.104 1.978-.646 2.463m24.22-1.882a1.278 1.278 0 0 0-1.426-1.108l-5.896.754c-.75.086-1.696-.81-2.296-2.202-.973-2.256-2.066-5.258-3.249-8.923-1.839-5.693-2.912-11.63-3.488-15.607-.385-2.654.499-4.86 1.532-5.179 1.863-.575 3.034-.746 4.973-1.028l.154-.023a1.28 1.28 0 0 0 1.08-1.45c-.102-.7-.75-1.186-1.445-1.084l-.155.022c-1.919.28-3.306.481-5.358 1.116-2.475.765-3.865 4.126-3.305 7.995l.056.374c-4.299-1.29-14.985-4.547-20.469-6.682-6.037-2.352-16.482-1.093-23.33 5.263-4.546-.897-9.101-.528-11.443-.22-.015-1.24-.29-2.45-.821-3.5-.772-1.524-2.009-2.545-3.483-2.877a290.81 290.81 0 0 1-3.41-.785C14.849.47 14.806.463 12.583.095L12.12.018a1.274 1.274 0 0 0-1.465 1.054 1.278 1.278 0 0 0 1.05 1.471l.462.078c2.181.361 2.181.361 3.46.663.665.157 1.661.392 3.437.79.921.208 1.469.95 1.766 1.54.713 1.404.727 3.346.036 4.944-3.078 7.117-8.468 17.147-11.406 22.492-.819 1.486-2.158 2.318-3.417 2.105l-4.56-.753a1.28 1.28 0 1 0-.414 2.527l4.56.753c.268.044.536.066.804.065 2.065 0 4.067-1.292 5.259-3.46.348-.634.734-1.338 1.143-2.09 3.522 3.06 14.704 12.534 20.566 14.593C37.615 48.27 41.157 49 44.538 49c2.642 0 5.188-.45 7.877-1.334.55.16 1.222.27 1.964.27 1.843 0 4.087-.688 5.796-3.004.62.154 1.473.306 2.423.306 1.047 0 2.207-.185 3.285-.763 1.365-.73 2.346-1.937 2.942-3.584.627.112 1.43.214 2.291.214 1.489 0 3.146-.303 4.346-1.372 1.125-1.004 1.63-2.455 1.513-4.316a12.4 12.4 0 0 0 1.658.13c1.511 0 2.872-.313 4.069-.944a7.521 7.521 0 0 0 2.527-2.167c.275.702.543 1.357.802 1.96 1.016 2.355 2.717 3.753 4.517 3.753.146 0 .294-.01.442-.029l5.896-.754a1.278 1.278 0 0 0 1.104-1.431" mask="url(#b)"/>
    </g>
</svg>
